<svg xmlns="http://www.w3.org/2000/svg" width="96" height="96" viewBox="0 0 96 96">
    <g fill="none" fill-rule="evenodd">
        <circle cx="48" cy="48" r="48" fill="#FF6500" fill-rule="nonzero" opacity=".1"/>
        <path d="M16 16h64v64H16z"/>
        <path d="M16 16h64v64H16z"/>
        <path fill="#FF6500" fill-rule="nonzero" d="M46.039 48.974a6.4 6.4 0 1 1 3.712.064l9.192 20.426a3.84 3.84 0 0 1-3.502 5.416H40.32a3.84 3.84 0 0 1-3.502-5.416l9.22-20.49zm-5.276 2.87a1.28 1.28 0 1 1-1.61 1.99A14.053 14.053 0 0 1 33.92 42.88c0-7.776 6.304-14.08 14.08-14.08s14.08 6.304 14.08 14.08c0 4.307-1.948 8.298-5.233 10.954a1.28 1.28 0 1 1-1.61-1.99 11.493 11.493 0 0 0 4.283-8.964c0-6.362-5.158-11.52-11.52-11.52-6.362 0-11.52 5.158-11.52 11.52 0 3.526 1.592 6.788 4.283 8.963zM48 46.72a3.84 3.84 0 1 0 0-7.68 3.84 3.84 0 0 0 0 7.68zm-8.847 23.795a1.28 1.28 0 0 0 1.167 1.805h15.121a1.28 1.28 0 0 0 1.168-1.805L47.88 51.119l-8.728 19.396z"/>
        <path fill="#FF6500" fill-rule="nonzero" d="M37.034 58.643A19.173 19.173 0 0 1 28.8 42.88c0-10.604 8.596-19.2 19.2-19.2s19.2 8.596 19.2 19.2c0 6.36-3.113 12.193-8.234 15.763a1.28 1.28 0 0 0 1.463 2.1A21.733 21.733 0 0 0 69.76 42.88c0-12.018-9.742-21.76-21.76-21.76s-21.76 9.742-21.76 21.76c0 7.206 3.53 13.82 9.33 17.863a1.28 1.28 0 1 0 1.464-2.1z"/>
    </g>
</svg>
