<svg xmlns="http://www.w3.org/2000/svg" width="24" height="30" viewBox="0 0 24 30">
    <g fill="none" fill-rule="evenodd" transform="translate(-6 -3)">
        <circle cx="18" cy="18" r="18" fill-rule="nonzero"/>
        <path d="M1 1h34v34H1z"/>
        <path fill="#FF6500" fill-rule="nonzero" d="M7.8 21.4v10.2a.68.68 0 0 1-1.36 0V4.4a.68.68 0 0 1 .68-.68h20.4a2.04 2.04 0 0 1 1.788 3.022l-3.193 5.818 3.193 5.818A2.04 2.04 0 0 1 27.52 21.4H7.8zm0-16.32v14.96h19.72a.68.68 0 0 0 .596-1.007l-3.373-6.146a.68.68 0 0 1 0-.654l3.373-6.146a.68.68 0 0 0-.596-1.007H7.8z"/>
        <path fill-rule="nonzero" stroke="#FF6500" stroke-linecap="round" stroke-linejoin="round" d="M8 13h17"/>
    </g>
</svg>
