<svg xmlns="http://www.w3.org/2000/svg" width="96" height="96" viewBox="0 0 96 96">
    <g fill="none" fill-rule="evenodd">
        <circle cx="48" cy="48" r="48" fill="#FF6500" fill-rule="nonzero" opacity=".1"/>
        <path d="M17 17h62v62H17z"/>
        <path fill="#FF6500" fill-rule="nonzero" d="M46.76 72.8c-13.012 0-23.56-10.548-23.56-23.56 0-13.012 10.548-23.56 23.56-23.56 13.012 0 23.56 10.548 23.56 23.56 0 13.012-10.548 23.56-23.56 23.56zm0-2.48c11.642 0 21.08-9.438 21.08-21.08 0-11.642-9.438-21.08-21.08-21.08-11.642 0-21.08 9.438-21.08 21.08 0 11.642 9.438 21.08 21.08 21.08zm0-4.96c-8.903 0-16.12-7.217-16.12-16.12 0-8.903 7.217-16.12 16.12-16.12 8.903 0 16.12 7.217 16.12 16.12 0 8.903-7.217 16.12-16.12 16.12zm0-2.48c7.533 0 13.64-6.107 13.64-13.64S54.293 35.6 46.76 35.6s-13.64 6.107-13.64 13.64 6.107 13.64 13.64 13.64zm0-4.96a8.68 8.68 0 1 1 0-17.36 8.68 8.68 0 0 1 0 17.36zm0-2.48a6.2 6.2 0 1 0 0-12.4 6.2 6.2 0 0 0 0 12.4z"/>
        <path fill="#FF6500" fill-rule="nonzero" d="M65.36 28.9v-4.46a1.24 1.24 0 1 1 2.48 0v3.72h3.72a1.24 1.24 0 1 1 0 2.48h-4.432L47.659 50.108c-1.169 1.17-2.923-.584-1.753-1.753L65.36 28.9z"/>
    </g>
</svg>
