<svg xmlns="http://www.w3.org/2000/svg" width="20" height="28" viewBox="0 0 20 28">
    <g fill="none" fill-rule="evenodd" transform="translate(-9 -5)">
        <circle cx="18" cy="18" r="18" fill-rule="nonzero"/>
        <path fill="#FF6500" fill-rule="nonzero" d="M18.28 20.44v5.76a.72.72 0 0 1-1.44 0v-5.76a2.16 2.16 0 0 0-2.16-2.16.72.72 0 0 1 0-1.44 3.6 3.6 0 0 1 3.6 3.6zm2.88 0v5.76a.72.72 0 0 1-1.44 0v-5.76a3.6 3.6 0 0 1 3.6-3.6.72.72 0 0 1 0 1.44 2.16 2.16 0 0 0-2.16 2.16z"/>
        <path fill="#FF6500" fill-rule="nonzero" d="M22.6 28.36v-1.44h-7.2v1.44h7.2zm0 1.44h-7.2v.72c0 .398.322.72.72.72h5.76a.72.72 0 0 0 .72-.72v-.72zm-7.92-4.32h8.64a.72.72 0 0 1 .72.72v4.32a2.16 2.16 0 0 1-2.16 2.16h-5.76a2.16 2.16 0 0 1-2.16-2.16V26.2a.72.72 0 0 1 .72-.72z"/>
        <path fill="#FF6500" fill-rule="nonzero" d="M23.57 22.361c2.238-3.864 3.35-6.645 3.35-8.257 0-4.044-3.535-7.344-7.92-7.344s-7.92 3.3-7.92 7.344c0 1.612 1.112 4.393 3.35 8.257.548.946.873 2.016.951 3.119h7.238a7.256 7.256 0 0 1 .95-3.119zM9.64 14.104c0-4.863 4.201-8.784 9.36-8.784s9.36 3.921 9.36 8.784c0 1.943-1.186 4.907-3.544 8.979a5.84 5.84 0 0 0-.776 2.922v.195a.72.72 0 0 1-.72.72h-8.64a.72.72 0 0 1-.72-.72v-.195a5.84 5.84 0 0 0-.776-2.922c-2.358-4.072-3.544-7.036-3.544-8.979z"/>
        <path d="M1 1h36v36H1z"/>
    </g>
</svg>
