<svg xmlns="http://www.w3.org/2000/svg" width="30" height="30" viewBox="0 0 30 30">
    <g fill="none" fill-rule="evenodd" transform="translate(-3 -3)">
        <circle cx="18" cy="18" r="18" fill-rule="nonzero"/>
        <path d="M1 1h34v34H1z"/>
        <path fill="#FF6500" fill-rule="nonzero" d="M17.32 24.8a.68.68 0 0 0-.68-.68h-4.08a.68.68 0 0 0-.68.68v6.12h5.44V24.8zm-4.76-2.04h4.08a2.04 2.04 0 0 1 2.04 2.04v6.8a.68.68 0 0 1-.68.68h-6.8a.68.68 0 0 1-.68-.68v-6.8a2.04 2.04 0 0 1 2.04-2.04zM18 20.04h-6.8c-.907 0-.907-1.36 0-1.36H18c.907 0 .907 1.36 0 1.36zm10.88-2.72h-2.72c-.907 0-.907-1.36 0-1.36h2.72c.907 0 .907 1.36 0 1.36zm0 5.44h-2.72c-.907 0-.907-1.36 0-1.36h2.72c.907 0 .907 1.36 0 1.36zm0 5.44h-2.72c-.907 0-.907-1.36 0-1.36h2.72c.907 0 .907 1.36 0 1.36zM18 14.6h-6.8c-.907 0-.907-1.36 0-1.36H18c.907 0 .907 1.36 0 1.36zm0-5.44h-6.8c-.907 0-.907-1.36 0-1.36H18c.907 0 .907 1.36 0 1.36z"/>
        <path fill="#FF6500" fill-rule="nonzero" d="M7.8 5.08v25.84h13.6V5.08H7.8zm14.96 6.8h6.12a.68.68 0 0 1 .68.68v18.36h2.04c.907 0 .907 1.36 0 1.36H4.4c-.907 0-.907-1.36 0-1.36h2.04V4.4a.68.68 0 0 1 .68-.68h14.96a.68.68 0 0 1 .68.68v7.48zm0 19.04h5.44V13.24h-5.44v17.68z"/>
    </g>
</svg>
