<svg xmlns="http://www.w3.org/2000/svg" width="50" height="50" viewBox="0 0 50 50">
    <g fill="none" fill-rule="evenodd">
        <path d="M-6-6h62v62H-6z"/>
        <path fill="#FF6500" fill-rule="nonzero" d="M23.76 49.8C10.748 49.8.2 39.252.2 26.24.2 13.228 10.748 2.68 23.76 2.68c13.012 0 23.56 10.548 23.56 23.56 0 13.012-10.548 23.56-23.56 23.56zm0-2.48c11.642 0 21.08-9.438 21.08-21.08 0-11.642-9.438-21.08-21.08-21.08-11.642 0-21.08 9.438-21.08 21.08 0 11.642 9.438 21.08 21.08 21.08zm0-4.96c-8.903 0-16.12-7.217-16.12-16.12 0-8.903 7.217-16.12 16.12-16.12 8.903 0 16.12 7.217 16.12 16.12 0 8.903-7.217 16.12-16.12 16.12zm0-2.48c7.533 0 13.64-6.107 13.64-13.64S31.293 12.6 23.76 12.6s-13.64 6.107-13.64 13.64 6.107 13.64 13.64 13.64zm0-4.96a8.68 8.68 0 1 1 0-17.36 8.68 8.68 0 0 1 0 17.36zm0-2.48a6.2 6.2 0 1 0 0-12.4 6.2 6.2 0 0 0 0 12.4z"/>
        <path fill="#FF6500" fill-rule="nonzero" d="M42.36 5.9V1.44a1.24 1.24 0 1 1 2.48 0v3.72h3.72a1.24 1.24 0 1 1 0 2.48h-4.432L24.659 27.108c-1.169 1.17-2.923-.584-1.753-1.753L42.36 5.9z"/>
    </g>
</svg>
