<svg xmlns="http://www.w3.org/2000/svg" width="30" height="30" viewBox="0 0 30 30">
    <g fill="none" fill-rule="evenodd">
        <path d="M-2-2h34v34H-2z"/>
        <path fill="#FF6500" fill-rule="nonzero" d="M14.32 21.8a.68.68 0 0 0-.68-.68H9.56a.68.68 0 0 0-.68.68v6.12h5.44V21.8zm-4.76-2.04h4.08a2.04 2.04 0 0 1 2.04 2.04v6.8a.68.68 0 0 1-.68.68H8.2a.68.68 0 0 1-.68-.68v-6.8a2.04 2.04 0 0 1 2.04-2.04zM15 17.04H8.2c-.907 0-.907-1.36 0-1.36H15c.907 0 .907 1.36 0 1.36zm10.88-2.72h-2.72c-.907 0-.907-1.36 0-1.36h2.72c.907 0 .907 1.36 0 1.36zm0 5.44h-2.72c-.907 0-.907-1.36 0-1.36h2.72c.907 0 .907 1.36 0 1.36zm0 5.44h-2.72c-.907 0-.907-1.36 0-1.36h2.72c.907 0 .907 1.36 0 1.36zM15 11.6H8.2c-.907 0-.907-1.36 0-1.36H15c.907 0 .907 1.36 0 1.36zm0-5.44H8.2c-.907 0-.907-1.36 0-1.36H15c.907 0 .907 1.36 0 1.36z"/>
        <path fill="#FF6500" fill-rule="nonzero" d="M4.8 2.08v25.84h13.6V2.08H4.8zm14.96 6.8h6.12a.68.68 0 0 1 .68.68v18.36h2.04c.907 0 .907 1.36 0 1.36H1.4c-.907 0-.907-1.36 0-1.36h2.04V1.4a.68.68 0 0 1 .68-.68h14.96a.68.68 0 0 1 .68.68v7.48zm0 19.04h5.44V10.24h-5.44v17.68z"/>
    </g>
</svg>
