<svg xmlns="http://www.w3.org/2000/svg" width="30" height="30" viewBox="0 0 30 30">
    <g fill="none" fill-rule="evenodd">
        <path d="M-2-2h34v34H-2z"/>
        <path fill="#FF6500" fill-rule="nonzero" d="M4.8 2.08h4.08v3.4a.68.68 0 0 0 1.36 0V1.4a.68.68 0 0 0-.68-.68H4.12a.68.68 0 0 0-.68.68v8.16a.68.68 0 0 0 1.36 0V2.08zM14.32 21.12h-6.8v8.16h-.68a.68.68 0 0 1-.68-.68v-8.16a.68.68 0 0 1 .68-.68h16.32a.68.68 0 0 1 .68.68v8.16a.68.68 0 0 1-.68.68h-.68v-8.16h-6.8v8.16h-1.36v-8.16z"/>
        <path fill="#FF6500" fill-rule="nonzero" d="M27.92 15.68v10.2a3.4 3.4 0 0 1-3.4 3.4H5.48a3.4 3.4 0 0 1-3.4-3.4v-10.2H1.4A.68.68 0 0 1 .72 15v-4.08a.68.68 0 0 1 .68-.68h1.127L14.583.863a.68.68 0 0 1 .835 0l12.055 9.377H28.6a.68.68 0 0 1 .68.68V15a.68.68 0 0 1-.68.68h-.68zM2.08 14.32h25.84V11.6H2.08v2.72zm23.178-4.08L15 2.261 4.742 10.24h20.516zm1.302 5.44H3.44v10.2a2.04 2.04 0 0 0 2.04 2.04h19.04a2.04 2.04 0 0 0 2.04-2.04v-10.2z"/>
    </g>
</svg>
