<svg xmlns="http://www.w3.org/2000/svg" width="20" height="28" viewBox="0 0 20 28">
    <g fill="none" fill-rule="evenodd">
        <path fill="#FF6500" fill-rule="nonzero" d="M9.28 15.44v5.76a.72.72 0 0 1-1.44 0v-5.76a2.16 2.16 0 0 0-2.16-2.16.72.72 0 0 1 0-1.44 3.6 3.6 0 0 1 3.6 3.6zm2.88 0v5.76a.72.72 0 0 1-1.44 0v-5.76a3.6 3.6 0 0 1 3.6-3.6.72.72 0 0 1 0 1.44 2.16 2.16 0 0 0-2.16 2.16z"/>
        <path fill="#FF6500" fill-rule="nonzero" d="M13.6 23.36v-1.44H6.4v1.44h7.2zm0 1.44H6.4v.72c0 .398.322.72.72.72h5.76a.72.72 0 0 0 .72-.72v-.72zm-7.92-4.32h8.64a.72.72 0 0 1 .72.72v4.32a2.16 2.16 0 0 1-2.16 2.16H7.12a2.16 2.16 0 0 1-2.16-2.16V21.2a.72.72 0 0 1 .72-.72z"/>
        <path fill="#FF6500" fill-rule="nonzero" d="M14.57 17.361c2.238-3.864 3.35-6.645 3.35-8.257 0-4.044-3.535-7.344-7.92-7.344s-7.92 3.3-7.92 7.344c0 1.612 1.112 4.393 3.35 8.257.548.946.873 2.016.951 3.119h7.238a7.256 7.256 0 0 1 .95-3.119zM.64 9.104C.64 4.241 4.841.32 10 .32s9.36 3.921 9.36 8.784c0 1.943-1.186 4.907-3.544 8.979a5.84 5.84 0 0 0-.776 2.922v.195a.72.72 0 0 1-.72.72H5.68a.72.72 0 0 1-.72-.72v-.195a5.84 5.84 0 0 0-.776-2.922C1.826 14.01.64 11.047.64 9.104z"/>
        <path d="M-8-4h36v36H-8z"/>
    </g>
</svg>
