<svg xmlns="http://www.w3.org/2000/svg" width="48" height="50" viewBox="0 0 48 50">
    <g fill="none" fill-rule="evenodd">
        <path d="M-6-4h58v58H-6z"/>
        <path fill="#FF6500" fill-rule="nonzero" d="M31.206 13.417c6.946 2.397 12.338 8.25 13.848 15.68l2.144 10.55c.894 4.398-2.004 8.676-6.473 9.555a8.38 8.38 0 0 1-1.618.158H9.211C4.654 49.36.96 45.725.96 41.24c0-.535.054-1.068.16-1.592l2.144-10.55c1.368-6.73 5.919-12.165 11.924-14.91-.093-.102-.169-.22-.222-.355l-4.64-11.6c-.367-.916.506-1.843 1.442-1.532l6.525 2.169L22.482.766a1.16 1.16 0 0 1 1.037-.002l4.239 2.106L34.234.702c.938-.313 1.813.614 1.446 1.531l-4.474 11.184zm-7.047 1.143c-9.033 0-16.811 6.275-18.583 14.992l-2.144 10.55a5.71 5.71 0 0 0-.114 1.138c0 3.203 2.638 5.8 5.893 5.8h29.896c.388 0 .775-.038 1.156-.113 3.192-.628 5.262-3.683 4.623-6.824l-2.144-10.55c-1.771-8.718-9.55-14.993-18.583-14.993zm4.804-1.783l3.632-9.08-4.556 1.525a1.16 1.16 0 0 1-.884-.06l-4.15-2.063-4.1 2.06a1.16 1.16 0 0 1-.887.064l-4.61-1.532 3.712 9.28c.054.137.081.277.083.415a21.584 21.584 0 0 1 6.956-1.146c1.646 0 3.255.185 4.804.537zM23 22.68v-1.16a1.16 1.16 0 0 1 2.32 0v1.16h3.371c.64 0 1.16.52 1.16 1.16v.878a1.16 1.16 0 0 1-2.285.282h-5.694c-.64 0-1.16.52-1.16 1.16v1.162c0 .64.52 1.16 1.16 1.16h4.608a3.48 3.48 0 0 1 3.48 3.48v1.158a3.48 3.48 0 0 1-3.48 3.48h-1.16v1.14a1.16 1.16 0 0 1-2.32 0V36.6h-3.48a1.16 1.16 0 0 1-1.16-1.195l.033-1.064a1.16 1.16 0 0 1 2.315-.061h5.772c.64 0 1.16-.52 1.16-1.16v-1.158c0-.64-.52-1.16-1.16-1.16h-4.608a3.48 3.48 0 0 1-3.48-3.48V26.16a3.48 3.48 0 0 1 3.48-3.48H23z"/>
    </g>
</svg>
